<svg width="143" height="177" viewBox="0 0 143 177" fill="none" xmlns="http://www.w3.org/2000/svg">
<path d="M139 105C139 142.279 108.779 172.5 71.5 172.5C34.2208 172.5 4 142.279 4 105C4 86.4676 13.5859 64.9208 27.3672 45.847C40.5415 27.6133 57.0759 12.2962 71.4087 4.55577C86.1036 13.2026 102.71 28.6056 115.83 46.6101C129.544 65.4304 139 86.4738 139 105Z" stroke="#48466A" stroke-width="8"/>
<ellipse cx="40.5" cy="100" rx="6.5" ry="9" fill="#48466A"/>
<ellipse cx="102.5" cy="100" rx="6.5" ry="9" fill="#48466A"/>
<path d="M71 116C71 116 96 116 102 116C108 116 111.605 119.24 105.92 129C98.3472 142 82 147 71 147V116Z" fill="#48466A"/>
<path d="M71.771 116C71.771 116 46.771 116 40.771 116C34.771 116 31.1661 119.24 36.8512 129C44.4238 142 60.771 147 71.771 147V116Z" fill="#48466A"/>
<path d="M75.5 21C75.5 21 81.4545 26.1034 88 33C94.5455 39.8966 99.5 46 99.5 46" stroke="#48466A" stroke-width="6" stroke-linecap="round"/>
<path d="M109 60C109 60 110.737 62.2455 112.646 65.28C114.555 68.3145 116 71 116 71" stroke="#48466A" stroke-width="6" stroke-linecap="round"/>
</svg>
